# xmcd
#
# Track frame offsets:
#	150
#	11003
#	22171
#	36291
#	47753
#	63447
#	79627
#	90268
#	106465
#	122190
#	139161
#	154012
#	169970
#	184653
#
# Disc length: 2559 seconds
#
# Revision: 2
# Processed by: cddbd v1.5.2PL0 Copyright (c) Steve Scherf et al.
# Submitted via: audiograbber 1.83.01
#
DISCID=b609fd0e
DTITLE=Various Artist - CDX 029
DYEAR=1992
DGENRE=Country
TTITLE0=Cleve Francis  - A Way To Free Myself
TTITLE1=Lacy J. Dalton - Bye Bye Love
TTITLE2=Asleep At The Wheel - Get Your Kicks On Route 66
TTITLE3=Asleep At The Wheel - Home Sweet Home
TTITLE4=Molly and The Heymakers - Jimmy McCarthy's Truck
TTITLE5=Mac McAnally - Live And Learn
TTITLE6=Holly Dunn - No Love Have I
TTITLE7=Chris Ledoux - Riding For A Fall
TTITLE8=B.B. Watson - Say Goodbye
TTITLE9=Joe Diffie - Ships That Don't Come In
TTITLE10=Dwight Yoakam  - The Heart That You Own
TTITLE11=Roger Springer  - The Right One Left
TTITLE12=Neal McCoy   - Where Forever Begins
TTITLE13=The Bellamy Brothers - Various Liners
EXTD=
EXTT0=
EXTT1=
EXTT2=
EXTT3=
EXTT4=
EXTT5=
EXTT6=
EXTT7=
EXTT8=
EXTT9=
EXTT10=
EXTT11=
EXTT12=
EXTT13=
PLAYORDER=
